<?xml version="1.0" standalone="no"?>
<!DOCTYPE svg PUBLIC "-//W3C//DTD SVG 20010904//EN"
 "http://www.w3.org/TR/2001/REC-SVG-20010904/DTD/svg10.dtd">
<svg version="1.0" xmlns="http://www.w3.org/2000/svg"
 width="58.000000pt" height="58.000000pt" viewBox="0 0 58.000000 58.000000"
 preserveAspectRatio="xMidYMid meet">

<g transform="translate(0.000000,58.000000) scale(0.100000,-0.100000)"
fill="#000000" stroke="none">
<path d="M424 550 c-6 -29 -8 -30 -60 -30 l-54 0 0 -105 0 -105 -40 0 -40 0 0
45 c0 43 -1 45 -30 45 -23 0 -30 -4 -30 -20 0 -11 5 -20 10 -20 6 0 10 -30 10
-70 l0 -70 -70 0 -70 0 0 70 c0 40 4 70 10 70 6 0 10 9 10 20 0 16 -7 20 -35
20 l-36 0 3 -112 3 -113 110 0 110 0 5 45 c5 44 6 45 40 45 l35 0 3 -102 3
-103 53 0 c52 0 54 -1 60 -30 l6 -31 72 3 73 3 3 69 c4 81 0 86 -78 86 -59 0
-80 -11 -80 -43 0 -15 -6 -18 -32 -15 l-33 3 0 80 0 80 31 3 c28 3 32 0 37
-28 l7 -31 72 3 73 3 3 69 c4 81 0 86 -79 86 -58 0 -79 -11 -79 -43 0 -15 -6
-18 -32 -15 l-33 3 0 80 0 80 33 3 c26 3 32 0 32 -15 0 -32 21 -43 80 -43 78
0 82 5 78 86 l-3 69 -73 3 -72 3 -6 -31z m106 -50 c0 -27 -3 -30 -30 -30 -27
0 -30 3 -30 30 0 27 3 30 30 30 27 0 30 -3 30 -30z m0 -210 c0 -27 -3 -30 -30
-30 -27 0 -30 3 -30 30 0 27 3 30 30 30 27 0 30 -3 30 -30z m0 -210 c0 -27 -3
-30 -30 -30 -27 0 -30 3 -30 30 0 27 3 30 30 30 27 0 30 -3 30 -30z"/>
<path d="M100 380 c0 -13 7 -20 20 -20 13 0 20 7 20 20 0 13 -7 20 -20 20 -13
0 -20 -7 -20 -20z"/>
<path d="M80 290 c0 -17 7 -20 40 -20 33 0 40 3 40 20 0 17 -7 20 -40 20 -33
0 -40 -3 -40 -20z"/>
</g>
</svg>
