<?xml version="1.0" standalone="no"?>
<!DOCTYPE svg PUBLIC "-//W3C//DTD SVG 20010904//EN"
 "http://www.w3.org/TR/2001/REC-SVG-20010904/DTD/svg10.dtd">
<svg version="1.0" xmlns="http://www.w3.org/2000/svg"
 width="512.000000pt" height="512.000000pt" viewBox="0 0 512.000000 512.000000"
 preserveAspectRatio="xMidYMid meet">

<g transform="translate(0.000000,512.000000) scale(0.100000,-0.100000)"
fill="#000000" stroke="none">
<path d="M1055 5106 c-189 -31 -370 -103 -522 -208 -100 -68 -243 -211 -311
-311 -257 -374 -291 -861 -90 -1262 84 -166 240 -347 391 -452 l80 -56 -29
-21 c-148 -105 -234 -256 -234 -412 0 -53 -3 -64 -26 -85 -44 -40 -103 -138
-124 -207 -27 -87 -27 -208 1 -297 35 -114 206 -350 323 -445 46 -38 66 -60
66 -76 0 -31 35 -123 59 -153 l18 -24 -73 -49 c-122 -81 -197 -190 -235 -336
-77 -303 109 -614 416 -692 75 -19 111 -20 977 -20 l898 0 0 83 0 84 143 12
c78 6 185 19 237 27 l95 16 84 -57 c91 -63 197 -112 306 -141 107 -28 322 -26
435 4 394 106 680 465 680 855 0 80 1 84 31 113 59 56 167 189 222 274 77 119
122 214 167 349 59 177 74 276 74 486 0 218 -12 282 -115 613 -120 388 -224
569 -447 783 -115 111 -232 191 -457 313 -88 48 -163 91 -167 94 -4 4 60 109
142 232 110 166 148 230 144 245 -46 155 -183 340 -321 431 -144 95 -278 134
-464 134 l-128 0 -3 -82 -3 -82 -85 -12 c-154 -22 -332 -98 -466 -197 -71 -53
-204 -175 -204 -188 0 -5 70 -114 155 -241 120 -180 152 -235 142 -244 -11
-10 -363 -204 -370 -204 -2 0 1 39 6 88 12 108 -3 272 -37 403 -115 453 -482
801 -951 904 -98 22 -330 28 -430 11z m93 -238 l-3 -82 -75 -13 c-41 -8 -81
-15 -88 -16 -14 -2 -76 129 -67 143 6 10 161 44 218 49 16 1 18 -7 15 -81z
m350 52 c46 -12 66 -21 64 -31 -8 -40 -57 -139 -66 -136 -10 4 -78 18 -153 33
-22 4 -23 9 -23 85 l0 80 55 -6 c31 -4 86 -15 123 -25z m-713 -161 c15 -38 26
-72 24 -74 -2 -1 -38 -26 -79 -53 l-75 -51 -58 57 -57 57 22 18 c45 37 171
117 183 117 6 0 24 -32 40 -71z m1009 39 c28 -17 71 -47 94 -66 l44 -35 -57
-57 -57 -58 -46 34 c-24 19 -58 42 -73 50 -16 8 -29 20 -29 27 0 22 53 137 63
137 6 0 33 -14 61 -32z m1801 -30 c28 -5 88 -28 135 -51 66 -32 102 -58 160
-117 67 -67 140 -176 140 -209 0 -6 -61 -103 -137 -216 l-136 -205 -372 0
-372 0 -132 198 -132 197 38 34 c121 108 296 188 471 216 l42 7 0 -246 0 -246
85 0 85 0 0 330 0 331 38 -6 c20 -3 60 -11 87 -17z m-2179 -168 c280 -70 496
-298 550 -578 54 -283 -57 -566 -290 -739 l-58 -43 -115 0 c-129 0 -235 -19
-338 -59 -67 -27 -71 -28 -125 -14 -80 21 -207 85 -270 137 -121 101 -221 262
-254 413 -20 90 -20 236 -1 328 18 89 89 232 154 311 92 113 262 218 401 248
99 22 252 20 346 -4z m-881 -139 c-12 -19 -98 -147 -100 -150 -8 -7 -145 53
-145 64 0 14 49 93 98 158 l36 47 58 -57 c31 -31 55 -59 53 -62z m1552 75 c29
-36 88 -129 98 -156 4 -11 -13 -22 -62 -43 -38 -15 -71 -27 -75 -27 -3 0 -17
17 -29 38 -12 20 -36 54 -52 75 l-30 38 54 55 c29 30 57 54 60 54 4 0 20 -15
36 -34z m-1791 -355 c43 -17 68 -33 67 -42 -1 -8 -8 -48 -16 -89 l-13 -75 -82
-3 c-45 -2 -82 1 -82 6 0 47 42 232 53 232 2 0 35 -13 73 -29z m1973 -3 c9
-30 18 -77 35 -175 l6 -33 -83 0 -83 0 -12 73 c-21 116 -24 107 48 138 36 15
68 28 72 28 3 1 11 -14 17 -31z m-1935 -400 c15 -78 29 -145 33 -154 5 -13
-138 -76 -149 -66 -7 7 -48 199 -48 226 0 13 13 16 80 16 75 0 80 -1 84 -22z
m1971 -15 c-11 -69 -37 -188 -44 -199 -4 -9 -26 -4 -73 15 -36 14 -69 29 -72
31 -4 4 21 144 33 188 1 1 37 2 81 2 l81 0 -6 -37z m811 -10 c-73 -145 -121
-401 -142 -750 l-6 -113 86 0 86 0 0 68 c0 100 18 281 41 417 39 223 104 381
172 413 36 17 95 8 139 -22 93 -62 126 -188 137 -516 l6 -195 84 -3 84 -3 -6
203 c-8 265 -26 366 -92 531 -6 14 -1 17 31 17 28 0 83 -25 233 -106 241 -131
363 -211 463 -304 144 -132 276 -334 343 -520 60 -169 144 -462 160 -559 25
-149 16 -386 -19 -528 -45 -182 -126 -353 -235 -500 l-46 -62 -6 123 c-6 111
-9 129 -35 176 -49 91 -131 135 -234 128 l-57 -4 -7 75 c-15 177 -115 270
-277 259 -63 -5 -68 -4 -73 16 -8 34 -74 105 -117 127 -123 62 -277 9 -335
-115 -13 -28 -24 -65 -24 -82 l0 -32 -63 5 c-146 12 -267 -100 -267 -247 0
-36 -2 -41 -17 -35 -102 43 -182 47 -234 12 -66 -44 -79 -77 -79 -198 l0 -109
-100 0 -99 0 7 33 c4 17 7 88 7 157 0 173 -33 277 -134 424 l-40 60 40 44
c120 129 125 317 12 442 -25 28 -65 62 -88 76 -28 16 -45 34 -50 52 -23 94
-133 279 -209 351 -20 19 -36 39 -36 44 0 5 23 35 52 66 67 72 157 212 198
305 30 69 38 78 108 129 43 30 176 109 297 176 l220 120 73 1 72 0 -24 -47z
m-928 -357 c12 -13 -122 -210 -181 -264 l-24 -23 -76 37 -75 38 64 69 c35 38
83 99 106 136 l43 68 69 -29 c39 -16 71 -30 74 -32z m-1734 25 c8 -15 31 -49
50 -73 l34 -46 -58 -57 -57 -57 -35 44 c-38 47 -98 143 -98 157 0 10 108 59
132 60 10 1 24 -12 32 -28z m252 -275 c25 -19 78 -52 119 -73 41 -21 75 -40
75 -43 -1 -3 -33 -27 -72 -54 l-71 -49 -51 26 c-28 15 -77 46 -108 70 l-57 42
57 58 c31 31 58 57 60 57 2 0 23 -15 48 -34z m1647 -749 c43 -33 72 -102 64
-152 -7 -42 -43 -105 -60 -105 -7 0 -53 59 -104 130 l-92 130 27 15 c41 24
122 15 165 -18z m-367 -54 c31 -23 385 -520 419 -588 38 -77 55 -160 55 -265
0 -78 -5 -109 -28 -175 -33 -94 -92 -186 -158 -243 -74 -66 -264 -188 -329
-212 -83 -31 -236 -39 -325 -16 -185 46 -262 117 -499 453 -94 133 -171 244
-171 248 0 4 18 28 40 53 21 26 55 82 74 123 l36 77 128 7 c71 4 135 10 141
15 7 4 15 40 18 83 l6 75 96 7 c53 3 106 8 117 10 24 5 34 39 34 111 0 23 4
45 8 48 5 3 57 8 116 12 127 8 128 9 130 126 l1 80 33 -6 c18 -3 44 -13 58
-23z m1775 -376 c38 -29 39 -46 39 -476 l0 -421 80 0 80 0 0 323 c0 196 4 337
11 360 18 65 98 82 139 29 19 -23 20 -41 20 -369 l0 -344 83 3 82 3 5 188 c5
172 7 190 24 203 37 26 84 21 114 -13 l24 -26 -4 -321 c-5 -364 -7 -379 -85
-536 -39 -79 -60 -109 -132 -180 -151 -149 -288 -209 -497 -218 -100 -4 -134
-1 -204 17 -218 55 -394 197 -490 396 -69 144 -72 169 -77 553 l-5 342 30 0
c42 0 94 -38 120 -90 21 -42 22 -55 22 -301 l0 -256 72 -8 c87 -8 122 -22 172
-65 55 -48 77 -100 83 -192 l6 -78 80 0 79 0 -4 98 c-3 83 -8 107 -35 164 -51
109 -145 188 -275 232 -17 5 -18 30 -18 334 0 339 4 383 40 402 21 11 61 13
85 4 41 -16 45 -49 45 -359 l0 -295 80 0 79 0 3 431 3 431 28 24 c30 26 72 31
98 11z m-2852 -659 c50 -70 91 -129 91 -131 0 -14 -67 -29 -109 -25 -56 6
-104 36 -127 81 -19 36 -21 114 -4 148 17 32 42 60 51 57 4 -2 49 -60 98 -130z
m1894 -340 c9 -251 40 -375 136 -533 l39 -63 -32 -6 c-56 -10 -220 -26 -276
-26 l-56 0 -26 53 c-73 148 -255 267 -409 267 -35 0 -49 4 -49 14 0 7 -9 24
-19 37 l-19 25 127 84 c138 93 249 197 296 278 l30 52 126 0 126 0 6 -182z
m-1673 25 c14 -21 51 -65 82 -99 l58 -61 -98 -5 c-166 -9 -261 -61 -356 -195
-31 -43 -55 -82 -55 -88 -1 -15 130 -98 138 -88 4 4 28 37 53 73 34 48 60 74
99 95 l54 30 408 3 408 3 29 -30 30 -29 0 -217 0 -216 -587 3 -588 3 -67 32
c-93 44 -151 100 -196 191 -35 73 -37 81 -37 176 0 93 3 107 32 168 43 91 101
151 187 194 62 30 86 36 177 43 75 6 117 15 145 29 21 12 44 21 49 21 6 1 21
-16 35 -36z m1167 -537 c89 -45 161 -147 176 -249 l6 -37 -165 0 -164 0 0 161
0 162 49 -6 c27 -3 71 -17 98 -31z"/>
<path d="M1158 4378 l-3 -82 -44 -8 c-114 -19 -201 -120 -201 -235 0 -76 20
-124 75 -178 62 -63 101 -75 239 -75 143 0 177 -17 176 -88 -1 -60 -45 -82
-159 -82 -102 0 -139 13 -157 56 l-14 34 -81 0 -82 0 7 -47 c12 -88 91 -172
186 -196 l55 -14 3 -82 3 -81 79 0 80 0 0 85 0 85 28 0 c36 1 110 35 145 68
51 48 71 99 71 177 0 80 -20 129 -76 182 -52 51 -94 63 -210 63 -132 0 -175
12 -192 52 -17 39 -9 74 22 98 21 17 40 20 123 20 116 0 147 -10 162 -50 11
-30 11 -30 94 -30 79 0 83 1 83 23 -1 34 -38 108 -73 145 -39 42 -76 61 -130
70 l-42 8 -3 82 -3 82 -79 0 -79 0 -3 -82z"/>
<path d="M4455 2974 c-33 -20 -62 -38 -64 -40 -2 -2 14 -43 36 -91 37 -78 124
-345 167 -508 9 -33 19 -105 23 -160 3 -55 11 -103 17 -107 6 -4 44 -8 85 -8
l74 0 -6 103 c-8 133 -22 198 -102 457 -62 199 -136 380 -160 387 -5 2 -37
-13 -70 -33z"/>
<path d="M4605 1898 c-22 -71 -35 -132 -28 -138 11 -10 143 -53 148 -48 5 5
45 150 45 164 0 6 -29 16 -64 22 -80 15 -96 15 -101 0z"/>
<path d="M1856 2151 c-2 -3 -7 -31 -11 -62 -10 -82 -11 -82 -88 -68 -37 7 -69
11 -71 8 -2 -2 -11 -39 -19 -81 -16 -87 -23 -80 82 -94 l53 -7 -6 -41 c-4 -23
-9 -57 -12 -77 l-6 -35 78 -12 c42 -7 80 -10 83 -6 3 3 11 33 16 67 l10 62 40
0 c22 0 56 -4 76 -8 l36 -7 12 69 c16 102 19 97 -55 109 -37 6 -69 13 -72 16
-3 3 0 36 6 73 6 37 10 69 8 70 -7 8 -157 30 -160 24z"/>
<path d="M1315 1758 c-2 -7 -8 -38 -12 -68 -8 -53 -10 -55 -38 -55 -17 1 -51
4 -76 8 l-45 8 -12 -64 c-20 -105 -20 -103 46 -111 85 -10 87 -12 73 -91 -7
-37 -11 -68 -9 -70 6 -5 122 -25 144 -25 19 0 23 7 29 58 10 85 11 86 87 73
36 -6 67 -11 70 -11 9 0 31 138 25 154 -3 7 -27 17 -54 20 -85 12 -86 13 -79
60 4 22 9 55 12 72 l6 32 -64 11 c-82 14 -98 14 -103 -1z"/>
<path d="M1963 1431 c-148 -51 -237 -171 -238 -321 l0 -75 50 2 c27 1 64 4 82
8 31 6 33 8 33 50 0 55 14 92 48 129 50 53 139 72 207 42 l30 -13 39 70 c37
67 38 71 20 84 -58 42 -186 54 -271 24z"/>
</g>
</svg>
