<?xml version="1.0" standalone="no"?>
<!DOCTYPE svg PUBLIC "-//W3C//DTD SVG 20010904//EN"
 "http://www.w3.org/TR/2001/REC-SVG-20010904/DTD/svg10.dtd">
<svg version="1.0" xmlns="http://www.w3.org/2000/svg"
 width="100.000000pt" height="100.000000pt" viewBox="0 0 100.000000 100.000000"
 preserveAspectRatio="xMidYMid meet">

<g transform="translate(0.000000,100.000000) scale(0.100000,-0.100000)"
fill="#000000" stroke="none">
<path d="M303 802 l-203 -117 0 -47 c0 -37 4 -50 20 -58 18 -10 20 -23 22
-162 l3 -152 160 -93 c88 -51 166 -92 174 -93 8 0 97 48 198 106 l183 106 0
153 c0 145 1 154 20 160 16 5 20 15 20 55 l0 48 -183 106 c-101 58 -190 106
-198 106 -8 0 -105 -53 -216 -118z m395 -6 c95 -55 171 -100 169 -101 -1 -1
-88 -52 -194 -113 l-192 -111 -176 101 -175 101 193 112 c105 62 195 112 198
111 3 0 83 -46 177 -100z m172 -143 c0 -29 10 -23 -322 -211 l-58 -33 0 28 c0
26 14 37 183 135 100 58 185 107 190 107 4 1 7 -11 7 -26z m-512 -123 c102
-58 112 -67 112 -93 l0 -28 -57 32 c-32 18 -71 41 -88 51 -34 20 -45 22 -45 8
0 -5 6 -10 14 -10 26 0 76 -35 76 -52 0 -16 -6 -15 -49 9 -38 22 -48 32 -46
50 2 19 -11 30 -71 65 -65 37 -74 45 -74 71 l0 28 58 -33 c32 -18 108 -62 170
-98z m472 -83 l0 -143 -162 -94 c-90 -51 -166 -95 -170 -97 -5 -2 -8 61 -8
140 l0 143 168 97 c92 53 168 97 170 97 1 0 2 -64 2 -143z m-578 54 c2 -18 20
-35 66 -63 60 -37 64 -38 69 -18 5 20 5 20 44 -2 l39 -22 0 -144 0 -143 -57
32 c-32 18 -98 56 -148 85 l-90 52 -3 145 -3 146 40 -22 c27 -15 41 -30 43
-46z"/>
<path d="M352 287 c-15 -18 4 -87 23 -87 8 0 15 6 15 13 0 14 35 39 44 30 3
-4 6 -13 6 -21 0 -12 -3 -12 -15 -2 -13 11 -15 9 -15 -13 0 -13 7 -30 15 -37
12 -10 16 -8 25 14 13 36 -13 94 -35 76 -12 -10 -17 -7 -26 14 -14 29 -22 32
-37 13z m28 -30 c-1 -21 -1 -21 -15 -3 -8 10 -12 23 -9 28 9 14 24 -2 24 -25z"/>
</g>
</svg>
