<?xml version="1.0" standalone="no"?>
<!DOCTYPE svg PUBLIC "-//W3C//DTD SVG 20010904//EN"
 "http://www.w3.org/TR/2001/REC-SVG-20010904/DTD/svg10.dtd">
<svg version="1.0" xmlns="http://www.w3.org/2000/svg"
 width="64.000000pt" height="64.000000pt" viewBox="0 0 64.000000 64.000000"
 preserveAspectRatio="xMidYMid meet">

<g transform="translate(0.000000,64.000000) scale(0.100000,-0.100000)"
fill="#000000" stroke="none">
<path d="M203 621 c-47 -22 -70 -51 -79 -102 -4 -18 -10 -38 -14 -44 -13 -18
-10 -124 4 -137 16 -16 36 -53 36 -67 0 -5 -25 -24 -56 -42 -73 -41 -95 -77
-92 -149 l3 -55 305 0 305 0 3 100 c1 55 7 110 13 122 24 46 10 52 -126 55
l-127 3 21 24 c16 18 20 36 19 80 0 31 -4 61 -8 66 -4 6 -10 26 -14 45 -9 50
-32 79 -80 101 -51 23 -61 23 -113 0z m67 -23 c0 -35 11 -68 20 -63 5 3 6 21
3 40 -6 39 1 43 35 19 48 -33 68 -112 32 -121 -11 -3 -17 -9 -14 -14 3 -5 16
-6 30 -3 13 3 24 2 24 -4 0 -16 -39 -22 -140 -22 -52 0 -105 3 -118 6 -34 9
-27 27 8 19 33 -7 42 9 10 18 -36 9 -16 88 32 121 35 25 40 20 33 -39 -5 -35
-4 -55 3 -55 5 0 13 27 17 60 7 57 25 85 25 38z m114 -194 c19 -7 21 -38 3
-56 -7 -7 -16 -21 -20 -30 -5 -14 -18 -18 -52 -18 -50 0 -67 -18 -47 -51 16
-26 15 -29 -9 -29 -31 0 -73 34 -95 77 -10 21 -25 44 -31 51 -7 7 -13 22 -13
32 0 10 6 21 13 23 18 8 232 8 251 1z m236 -134 c0 -5 -9 -10 -20 -10 -11 0
-20 -4 -20 -10 0 -5 5 -10 10 -10 6 0 10 -40 10 -100 l0 -100 -150 0 -150 0 0
100 0 100 90 0 c53 0 90 4 90 10 0 6 -40 10 -100 10 -60 0 -100 4 -100 10 0 6
63 10 170 10 107 0 170 -4 170 -10z m-363 -70 c19 0 23 -5 23 -30 l0 -30 -60
0 -60 0 0 55 0 56 37 -26 c21 -14 48 -25 60 -25z m-117 -15 c0 -38 -3 -45 -20
-45 -16 0 -20 7 -20 33 0 31 14 57 32 57 4 0 8 -20 8 -45z m43 -63 l97 -3 0
-39 0 -40 -131 0 -131 0 4 55 c3 40 11 62 29 81 l24 26 5 -39 5 -38 98 -3z"/>
<path d="M500 250 c0 -5 14 -10 30 -10 17 0 30 5 30 10 0 6 -13 10 -30 10 -16
0 -30 -4 -30 -10z"/>
<path d="M394 206 c-13 -35 3 -47 58 -44 49 3 53 5 53 28 0 23 -4 25 -53 28
-40 2 -54 -1 -58 -12z m96 -16 c0 -5 -18 -10 -40 -10 -22 0 -40 5 -40 10 0 6
18 10 40 10 22 0 40 -4 40 -10z"/>
<path d="M40 80 c0 -11 5 -20 10 -20 6 0 10 9 10 20 0 11 -4 20 -10 20 -5 0
-10 -9 -10 -20z"/>
<path d="M90 80 c0 -11 5 -20 10 -20 6 0 10 9 10 20 0 11 -4 20 -10 20 -5 0
-10 -9 -10 -20z"/>
<path d="M140 80 c0 -11 5 -20 10 -20 6 0 10 9 10 20 0 11 -4 20 -10 20 -5 0
-10 -9 -10 -20z"/>
<path d="M190 80 c0 -11 5 -20 10 -20 6 0 10 9 10 20 0 11 -4 20 -10 20 -5 0
-10 -9 -10 -20z"/>
<path d="M240 80 c0 -11 5 -20 10 -20 6 0 10 9 10 20 0 11 -4 20 -10 20 -5 0
-10 -9 -10 -20z"/>
</g>
</svg>
